<svg id="Capa_1" xmlns="http://www.w3.org/2000/svg" viewBox="0 128.2 595.3 585.4"><style>.st0{fill:#e4b33d}</style><path class="st0" d="M195.3 531.8c24.5 34.6 49 65.5 65.2 85.4 2.4 2.9 4.6 5.6 6.7 8.2h-49c-5.5 0-9.9 4.4-9.9 9.9s4.4 9.9 9.9 9.9H377c5.5 0 9.9-4.4 9.9-9.9s-4.4-9.9-9.9-9.9h-49c2.1-2.6 4.4-5.3 6.7-8.2 16.2-19.8 40.7-50.8 65.2-85.4 24.3-33.6 46.2-68.9 65.5-105.6 20.3-39.8 30.5-72.8 30.5-98.2.1-52.7-20.8-103.2-58.1-140.5-2.5-2.6-6.2-3.6-9.6-2.7-3.5.9-6.2 3.6-7.1 7.1-.9 3.5.1 7.2 2.7 9.7 33.5 33.5 52.4 79 52.3 126.5 0 22.2-9.5 52.2-28.4 89.2-18.9 35.9-40.3 70.4-64.1 103.2-24.2 34.1-48.4 64.7-64.4 84.3-5.3 6.5-10.1 12.3-14.2 17.2-1.9 2.2-4.7 3.4-7.6 3.4s-5.7-1.2-7.6-3.4c-4.1-4.9-8.9-10.7-14.2-17.2-16-19.6-40.2-50.2-64.4-84.3-23.8-32.8-45.2-67.3-64.1-103.2-18.9-37-28.4-67-28.4-89.2 0-71.9 43-136.8 109.1-164.8 44.5-18.6 94.5-18.6 139 0 3.3 1.4 7 .9 9.9-1.2 2.8-2.1 4.3-5.6 3.9-9.1-.4-3.5-2.7-6.5-6-7.9-101-42.6-217.5 4.7-260.1 105.7-10.3 24.5-15.6 50.8-15.6 77.3 0 25.4 10.3 58.4 30.5 98.2 19.7 36.6 41.6 71.9 65.9 105.5z" transform="translate(0 -1)"/><path class="st0" d="M297.6 238.4c5.5 0 9.9-4.4 9.9-9.9s-4.4-9.9-9.9-9.9c-47.3 0-88.1 33.4-97.3 79.9-9.2 46.4 15.6 92.9 59.3 111 43.7 18.1 94.2 2.8 120.5-36.5 26.3-39.4 21.1-91.8-12.3-125.3-2.5-2.6-6.2-3.6-9.6-2.7-3.5.9-6.2 3.6-7.1 7.1-.9 3.5.1 7.2 2.7 9.6 26.8 26.8 30.9 68.7 9.9 100.2s-61.4 43.7-96.4 29.2c-35-14.5-54.9-51.7-47.5-88.8 7.4-37.1 40-63.9 77.8-63.9zM591.5 670.7l-61-109.1c-5.5-9.7-15.8-15.7-27-15.6h-70.7c-5.5 0-9.9 4.4-9.9 9.9s4.4 9.9 9.9 9.9h70.7c4-.1 7.7 2 9.7 5.4l61 109.1c1.7 2.8 1.6 6.4-.1 9.2-2 3.3-5.7 5.4-9.6 5.3H30.8c-3.9.1-7.6-1.9-9.6-5.3-1.7-2.8-1.7-6.3-.1-9.2l61-109.1c2-3.4 5.7-5.5 9.7-5.4h70.7c5.5 0 9.9-4.4 9.9-9.9s-4.4-9.9-9.9-9.9H91.8c-11.2-.1-21.5 5.9-27 15.6l-61 109.1c-5.1 9-5 20 .3 28.9 5.6 9.5 15.8 15.2 26.7 15.1h533.8c11 .1 21.2-5.6 26.7-15.1 5.2-8.9 5.3-19.9.2-28.9z" transform="translate(0 -1)"/><path class="st0" d="M486.2 595.6h-39.7c-2 0-3.9.6-5.5 1.7l-29.8 19.8c-4.6 3-5.8 9.2-2.7 13.8 3 4.6 9.2 5.8 13.8 2.7l27.2-18.2h36.7c5.5 0 9.9-4.4 9.9-9.9s-4.5-9.9-9.9-9.9zM426.6 665c0 5.5 4.4 9.9 9.9 9.9h79.4c5.5 0 9.9-4.4 9.9-9.9s-4.4-9.9-9.9-9.9h-79.4c-5.4 0-9.9 4.5-9.9 9.9zM178.6 635.3c4.4 0 8.2-2.9 9.5-7 1.3-4.2-.3-8.7-4-11.1l-29.8-19.8c-1.6-1.1-3.6-1.7-5.5-1.7h-39.7c-5.5 0-9.9 4.4-9.9 9.9s4.4 9.9 9.9 9.9h36.7l27.3 18.2c1.6 1 3.5 1.6 5.5 1.6zM79.4 655.1c-5.5 0-9.9 4.4-9.9 9.9s4.4 9.9 9.9 9.9h79.4c5.5 0 9.9-4.4 9.9-9.9s-4.4-9.9-9.9-9.9H79.4z" transform="translate(0 -1)"/></svg>