<svg id="Capa_1" xmlns="http://www.w3.org/2000/svg" viewBox="0 123.3 595.3 595.2"><style>.st0{fill:#e4b33d}</style><path class="st0" d="M14.3 309.7c3.5 13.1 15.5 22.1 29 22 2 0 3.9-.2 5.8-.6l60.1-11.5 46.2-10.1c15.2-2.7 25.7-16.8 23.9-32.2l-5.6-43.3c-.7-5.4 11.6-11.4 23.2-13.1 66.8-10.8 134.8-11 201.6-.5 18.4 3.2 22.4 6.1 23.3 7.2 1.8 4.6 2.1 9.6.8 14.3l-4 28.8c-2.3 9.3-.7 19.1 4.5 27.2 7.2 7.6 16.9 12.3 27.3 13.3 6.9 1.3 12.3 2.7 17.6 4 5.7 1.4 11.3 2.8 18.7 4.2l53.8 10.4c9.4 2.8 19.4 2.2 28.3-1.6 9.4-6.1 15.6-16.2 16.6-27.4l.3-1.4c1-4.6 2.4-9.1 3.8-13.7 3.9-10.9 6-22.4 6.3-33.9-1.6-20.4-11-39.4-26.3-53.1-68.7-67.4-187.5-75.2-270.8-75.2-190.2 0-262.7 54.8-290 100.7-7.5 12.7-9.6 27.9-5.7 42.2l11.3 43.3zm11.4-75.5c24.7-41.5 92.1-91 273-91 79.9 0 193.5 7.2 256.9 69.5 11.5 10.1 18.8 24.2 20.3 39.5-.3 9.4-2.2 18.8-5.4 27.7-1.5 5-3 10-4.1 15l-.3 1.5c-1.7 7.4-3 12.4-6.4 14.1-5.1 1.4-10.4 1.3-15.4-.3l-53.7-10.3c-6.9-1.3-12.3-2.7-17.7-4-5.7-1.4-11.3-2.8-18.7-4.2-4.8-.9-12.7-2.4-15.2-5.8-1.6-4-1.8-8.4-.6-12.5l4.1-28.8c2.4-9.7.9-19.9-4.2-28.5-6.4-9.1-21.2-12.8-36.2-15.4-68.9-10.8-139.1-10.7-208 .5-21.7 3.3-42.5 15.5-39.9 35.3l5.7 43.3c.4 5.1-3.2 9.5-8.2 10.2l-46.3 10-59.9 11.5c-5.2 1.2-10.4-1.9-11.9-6.9l-11.3-43.5c-2.7-9-1.4-18.7 3.4-26.9z" transform="translate(-1)"/><path class="st0" d="M594.5 576.2c-.1-.3-.2-.5-.3-.7-.9-2.5-2.2-4.8-3.7-6.9L464.4 397.4c-7.5-10.1-19.3-16.1-32-16.1h-25.8l-8.8-70.2c-.4-10.7-9.2-19.1-19.8-19.1h-29.8c-11 0-19.8 8.9-19.8 19.8v79.4c0 5.5 4.4 9.9 9.9 9.9s9.9-4.4 9.9-9.9v-79.4H378c0 .4 0 .8.1 1.2l9.9 79.4c.6 5 4.8 8.7 9.8 8.7h34.6c6.3 0 12.2 3 16 8.1l118.3 160.6h-79.6c-5.5 0-9.9 4.4-9.9 9.9s4.4 9.9 9.9 9.9h89.3V669c0 16.4-13.3 29.8-29.8 29.8h-496c-16.4 0-29.8-13.3-29.8-29.8v-79.4h416.7c5.5 0 9.9-4.4 9.9-9.9s-4.4-9.9-9.9-9.9h-407l118.3-160.6c3.7-5.1 9.7-8.1 16-8.1h34.6c5 0 9.2-3.7 9.8-8.7l9.9-79.4c.1-.4.1-.8.1-1.2H249v79.4c0 5.5 4.4 9.9 9.9 9.9h39.7c5.5 0 9.9-4.4 9.9-9.9s-4.4-9.9-9.9-9.9h-29.8v-69.4c0-11-8.9-19.8-19.8-19.8h-29.8c-10.7 0-19.5 8.4-19.8 19.1l-8.8 70.2h-25.8c-12.6 0-24.4 6-31.9 16.1L6.8 568.5c-1.5 2.1-2.8 4.5-3.7 6.9-.1.2-.2.5-.3.7-1.2 3.2-1.8 6.6-1.8 10V669c0 27.4 22.2 49.6 49.6 49.6h496c27.4 0 49.6-22.2 49.6-49.6v-82.8c.1-3.4-.5-6.8-1.7-10z" transform="translate(-1)"/><path class="st0" d="M233.3 455.5c9.1-4.9 18.9-8.5 29-10.7 24-5.3 48.8-5.3 72.7 0 3.5.8 7.1-.3 9.5-2.9 2.4-2.6 3.3-6.3 2.3-9.7-1-3.4-3.8-6-7.3-6.8-26.9-6-54.8-6-81.7 0-11.9 2.7-23.3 6.9-34.1 12.7-9.4 4.9-17.7 11.7-24.3 20-13.2 15.8-13.2 38.8 0 54.6 6.7 8.3 14.9 15.1 24.3 20 10.7 5.7 22.2 10 34.1 12.7 26.9 6.1 54.8 6.1 81.7 0 11.9-2.7 23.3-6.9 34.1-12.7 9.4-4.9 17.7-11.7 24.3-20 13.2-15.8 13.2-38.8 0-54.6-2.1-2.9-5.7-4.4-9.2-4-3.6.4-6.6 2.8-8 6.1-1.3 3.3-.8 7.1 1.5 9.9 7.6 8.7 7.6 21.7 0 30.4-5 6.1-11.2 11.1-18.2 14.7-9.1 4.9-18.9 8.5-29 10.7-24 5.3-48.8 5.3-72.7 0-10.1-2.2-19.9-5.8-29-10.7-7-3.6-13.2-8.6-18.2-14.7-7.6-8.7-7.6-21.7 0-30.4 5-5.9 11.2-10.9 18.2-14.6z" transform="translate(-1)"/></svg>